VIC WA NT Beginner-Extrabold.ufo
<glyph name="ampersand" format="2">
  <advance width="600"/>
  <unicode hex="0026"/>
  <outline>
    <contour>
      <point x="226" y="-4" type="curve" smooth="yes"/>
      <point x="326" y="-4"/>
      <point x="410" y="62"/>
      <point x="516" y="222" type="curve" smooth="yes"/>
      <point x="533" y="248"/>
      <point x="525" y="275"/>
      <point x="503" y="288" type="curve" smooth="yes"/>
      <point x="479" y="303"/>
      <point x="441" y="294"/>
      <point x="423" y="269" type="curve" smooth="yes"/>
      <point x="337" y="147"/>
      <point x="285" y="97"/>
      <point x="244" y="97" type="curve" smooth="yes"/>
      <point x="198" y="97"/>
      <point x="171" y="122"/>
      <point x="171" y="172" type="curve" smooth="yes"/>
      <point x="171" y="218"/>
      <point x="204" y="262"/>
      <point x="265" y="301" type="curve" smooth="yes"/>
      <point x="301" y="324" type="line" smooth="yes"/>
      <point x="405" y="390"/>
      <point x="477" y="468"/>
      <point x="477" y="542" type="curve" smooth="yes"/>
      <point x="477" y="623"/>
      <point x="406" y="650"/>
      <point x="340" y="650" type="curve" smooth="yes"/>
      <point x="226" y="650"/>
      <point x="141" y="587"/>
      <point x="141" y="502" type="curve" smooth="yes"/>
      <point x="141" y="441"/>
      <point x="185" y="383"/>
      <point x="218" y="329" type="curve"/>
      <point x="402" y="24" type="line"/>
      <point x="416" y="1"/>
      <point x="458" y="-14"/>
      <point x="485" y="7" type="curve" smooth="yes"/>
      <point x="514" y="30"/>
      <point x="512" y="59"/>
      <point x="497" y="83" type="curve" smooth="yes"/>
      <point x="306" y="393" type="line" smooth="yes"/>
      <point x="274" y="445"/>
      <point x="250" y="479"/>
      <point x="250" y="504" type="curve" smooth="yes"/>
      <point x="250" y="529"/>
      <point x="285" y="547"/>
      <point x="333" y="547" type="curve" smooth="yes"/>
      <point x="363" y="547"/>
      <point x="373" y="541"/>
      <point x="373" y="526" type="curve" smooth="yes"/>
      <point x="373" y="504"/>
      <point x="335" y="468"/>
      <point x="248" y="413" type="curve" smooth="yes"/>
      <point x="216" y="393" type="line" smooth="yes"/>
      <point x="136" y="343"/>
      <point x="62" y="254"/>
      <point x="62" y="170" type="curve" smooth="yes"/>
      <point x="62" y="55"/>
      <point x="119" y="-4"/>
    </contour>
  </outline>
</glyph>
<glyph name="parenleft" format="2">
  <advance width="452"/>
  <unicode hex="0028"/>
  <outline>
    <contour>
      <point x="262" y="-295" type="curve" smooth="yes"/>
      <point x="277" y="-283"/>
      <point x="282" y="-264"/>
      <point x="270" y="-235" type="curve"/>
      <point x="189" y="-66"/>
      <point x="177" y="80"/>
      <point x="201" y="213" type="curve" smooth="yes"/>
      <point x="222" y="333"/>
      <point x="292" y="456"/>
      <point x="410" y="574" type="curve" smooth="yes"/>
      <point x="441" y="605"/>
      <point x="436" y="628"/>
      <point x="422" y="643" type="curve" smooth="yes"/>
      <point x="407" y="658"/>
      <point x="374" y="659"/>
      <point x="343" y="631" type="curve" smooth="yes"/>
      <point x="211" y="505"/>
      <point x="116" y="330"/>
      <point x="97" y="221" type="curve" smooth="yes"/>
      <point x="76" y="96"/>
      <point x="101" y="-95"/>
      <point x="190" y="-275" type="curve" smooth="yes"/>
      <point x="205" y="-303"/>
      <point x="241" y="-310"/>
    </contour>
  </outline>
</glyph>
<glyph name="hyphen" format="2">
  <advance width="382"/>
  <unicode hex="002D"/>
  <outline>
    <contour>
      <point x="120" y="154" type="curve" smooth="yes"/>
      <point x="265" y="154" type="line" smooth="yes"/>
      <point x="301.0" y="154.0"/>
      <point x="323" y="172"/>
      <point x="323" y="200" type="curve" smooth="yes"/>
      <point x="323" y="227"/>
      <point x="304.0" y="244.0"/>
      <point x="274" y="244" type="curve" smooth="yes"/>
      <point x="129" y="244" type="line" smooth="yes"/>
      <point x="93" y="244"/>
      <point x="71" y="226"/>
      <point x="71" y="198" type="curve" smooth="yes"/>
      <point x="71" y="171"/>
      <point x="90" y="154"/>
    </contour>
  </outline>
</glyph>
<glyph name="three" format="2">
  <advance width="458"/>
  <unicode hex="0033"/>
  <outline>
    <contour>
      <point x="149" y="-4" type="curve" smooth="yes"/>
      <point x="285" y="-4"/>
      <point x="416" y="106"/>
      <point x="416" y="229" type="curve" smooth="yes"/>
      <point x="416" y="327"/>
      <point x="351" y="370"/>
      <point x="246" y="343" type="curve"/>
      <point x="244" y="325" type="line"/>
      <point x="371" y="415"/>
      <point x="413" y="446"/>
      <point x="413" y="495" type="curve" smooth="yes"/>
      <point x="413" y="535"/>
      <point x="363" y="568"/>
      <point x="295" y="568" type="curve" smooth="yes"/>
      <point x="241" y="568"/>
      <point x="180" y="550"/>
      <point x="120" y="510" type="curve" smooth="yes"/>
      <point x="87" y="489"/>
      <point x="89" y="464"/>
      <point x="100" y="445" type="curve" smooth="yes"/>
      <point x="113" y="423"/>
      <point x="141" y="424"/>
      <point x="164" y="439" type="curve" smooth="yes"/>
      <point x="219" y="476"/>
      <point x="269" y="488"/>
      <point x="300" y="488" type="curve" smooth="yes"/>
      <point x="307" y="488"/>
      <point x="316" y="487"/>
      <point x="316" y="481" type="curve" smooth="yes"/>
      <point x="316" y="465"/>
      <point x="199" y="381"/>
      <point x="122" y="333" type="curve" smooth="yes"/>
      <point x="95" y="316"/>
      <point x="94" y="290"/>
      <point x="104" y="270" type="curve" smooth="yes"/>
      <point x="115" y="249"/>
      <point x="146" y="237"/>
      <point x="176" y="256" type="curve" smooth="yes"/>
      <point x="211" y="278"/>
      <point x="240" y="288"/>
      <point x="263" y="288" type="curve" smooth="yes"/>
      <point x="299" y="288"/>
      <point x="319" y="264"/>
      <point x="319" y="228" type="curve" smooth="yes"/>
      <point x="319" y="148"/>
      <point x="224" y="83"/>
      <point x="161" y="83" type="curve" smooth="yes"/>
      <point x="129" y="83"/>
      <point x="110" y="89"/>
      <point x="95" y="100" type="curve" smooth="yes"/>
      <point x="64" y="124"/>
      <point x="35" y="115"/>
      <point x="22" y="97" type="curve" smooth="yes"/>
      <point x="10" y="81"/>
      <point x="5" y="54"/>
      <point x="38" y="28" type="curve" smooth="yes"/>
      <point x="64" y="7"/>
      <point x="101" y="-4"/>
    </contour>
  </outline>
</glyph>
<glyph name="four" format="2">
  <advance width="466"/>
  <unicode hex="0034"/>
  <guideline x="525" y="569" angle="0" identifier="kC2ohKlSA4"/>
  <outline>
    <contour>
      <point x="86" y="122" type="curve" smooth="yes"/>
      <point x="366" y="122" type="line" smooth="yes"/>
      <point x="394" y="122"/>
      <point x="415" y="143"/>
      <point x="415" y="168" type="curve" smooth="yes"/>
      <point x="415" y="192"/>
      <point x="394" y="212"/>
      <point x="366" y="212" type="curve" smooth="yes"/>
      <point x="153" y="212" type="line"/>
      <point x="323" y="500" type="line" smooth="yes"/>
      <point x="351" y="547"/>
      <point x="315" y="569"/>
      <point x="291" y="569" type="curve"/>
      <point x="264" y="569"/>
      <point x="251" y="556"/>
      <point x="235" y="528" type="curve" smooth="yes"/>
      <point x="43" y="202" type="line" smooth="yes"/>
      <point x="9" y="145"/>
      <point x="40" y="122"/>
    </contour>
    <contour>
      <point x="226" y="0" type="curve" smooth="yes"/>
      <point x="254" y="0"/>
      <point x="270" y="16"/>
      <point x="275" y="44" type="curve" smooth="yes"/>
      <point x="310" y="235" type="line" smooth="yes"/>
      <point x="315" y="264"/>
      <point x="304" y="282"/>
      <point x="280" y="287" type="curve" smooth="yes"/>
      <point x="256" y="291"/>
      <point x="236" y="276"/>
      <point x="231" y="248" type="curve" smooth="yes"/>
      <point x="196" y="59" type="line" smooth="yes"/>
      <point x="190" y="26"/>
      <point x="200" y="0"/>
    </contour>
  </outline>
</glyph>
<glyph name="semicolon" format="2">
  <advance width="219"/>
  <unicode hex="003B"/>
  <outline>
    <contour>
      <point x="63" y="-79" type="curve" smooth="yes"/>
      <point x="89" y="-79"/>
      <point x="110" y="-68"/>
      <point x="118" y="-37" type="curve" smooth="yes"/>
      <point x="144" y="67" type="line" smooth="yes"/>
      <point x="156" y="113"/>
      <point x="123" y="129"/>
      <point x="96" y="129" type="curve" smooth="yes"/>
      <point x="70" y="129"/>
      <point x="50" y="119.0"/>
      <point x="42" y="87" type="curve" smooth="yes"/>
      <point x="16" y="-17" type="line" smooth="yes"/>
      <point x="5" y="-62"/>
      <point x="37" y="-79"/>
    </contour>
    <contour>
      <point x="148" y="233" type="curve" smooth="yes"/>
      <point x="181" y="233"/>
      <point x="211" y="263"/>
      <point x="211" y="298" type="curve" smooth="yes"/>
      <point x="211" y="331"/>
      <point x="181" y="359"/>
      <point x="148" y="359" type="curve" smooth="yes"/>
      <point x="113" y="359"/>
      <point x="86" y="331"/>
      <point x="86" y="298" type="curve" smooth="yes"/>
      <point x="86" y="263"/>
      <point x="113" y="233"/>
    </contour>
  </outline>
</glyph>
<glyph name="K" format="2">
  <advance width="516"/>
  <unicode hex="004B"/>
  <outline>
    <contour>
      <point x="422" y="0" type="curve" smooth="yes"/>
      <point x="449" y="0"/>
      <point x="469" y="22"/>
      <point x="469" y="47" type="curve" smooth="yes"/>
      <point x="469" y="61"/>
      <point x="464" y="75"/>
      <point x="457" y="85" type="curve" smooth="yes"/>
      <point x="257" y="370" type="line"/>
      <point x="248" y="321" type="line"/>
      <point x="548" y="566" type="line" smooth="yes"/>
      <point x="562" y="578"/>
      <point x="573" y="593"/>
      <point x="573" y="611" type="curve" smooth="yes"/>
      <point x="573" y="631"/>
      <point x="558" y="650"/>
      <point x="529" y="650" type="curve" smooth="yes"/>
      <point x="513" y="650"/>
      <point x="493" y="644"/>
      <point x="477" y="631" type="curve" smooth="yes"/>
      <point x="156" y="369" type="line"/>
      <point x="155" y="339" type="line"/>
      <point x="373" y="25" type="line" smooth="yes"/>
      <point x="384" y="9"/>
      <point x="403" y="0"/>
    </contour>
    <contour>
      <point x="88" y="0" type="curve" smooth="yes"/>
      <point x="119" y="0"/>
      <point x="135" y="19"/>
      <point x="140" y="45" type="curve" smooth="yes"/>
      <point x="238" y="597" type="line" smooth="yes"/>
      <point x="245" y="636"/>
      <point x="218" y="650"/>
      <point x="194" y="650" type="curve" smooth="yes"/>
      <point x="168" y="650"/>
      <point x="144" y="637"/>
      <point x="139" y="609" type="curve" smooth="yes"/>
      <point x="40" y="54" type="line" smooth="yes"/>
      <point x="35" y="24"/>
      <point x="56" y="0"/>
    </contour>
  </outline>
</glyph>
<glyph name="N" format="2">
  <advance width="566"/>
  <unicode hex="004E"/>
  <outline>
    <contour>
      <point x="82" y="0" type="curve" smooth="yes"/>
      <point x="115" y="0"/>
      <point x="135" y="19"/>
      <point x="139" y="42" type="curve" smooth="yes"/>
      <point x="209" y="463" type="line"/>
      <point x="197" y="460" type="line"/>
      <point x="378" y="28" type="line" smooth="yes"/>
      <point x="386" y="10"/>
      <point x="401" y="0"/>
      <point x="426" y="0" type="curve"/>
      <point x="460" y="0"/>
      <point x="469" y="19"/>
      <point x="473" y="40" type="curve" smooth="yes"/>
      <point x="571" y="597" type="line" smooth="yes"/>
      <point x="577" y="629"/>
      <point x="561" y="653"/>
      <point x="528" y="653" type="curve" smooth="yes"/>
      <point x="500" y="653"/>
      <point x="477" y="637"/>
      <point x="472" y="609" type="curve" smooth="yes"/>
      <point x="402" y="184" type="line"/>
      <point x="414" y="187" type="line"/>
      <point x="232" y="620" type="line" smooth="yes"/>
      <point x="223" y="641"/>
      <point x="205" y="650"/>
      <point x="185" y="650" type="curve"/>
      <point x="160" y="650"/>
      <point x="143" y="636"/>
      <point x="138" y="609" type="curve" smooth="yes"/>
      <point x="39" y="49" type="line" smooth="yes"/>
      <point x="34" y="21"/>
      <point x="53" y="0"/>
    </contour>
  </outline>
</glyph>
<glyph name="X" format="2">
  <advance width="492"/>
  <unicode hex="0058"/>
  <outline>
    <contour>
      <point x="23" y="13" type="curve" smooth="yes"/>
      <point x="42" y="-3"/>
      <point x="82" y="-8"/>
      <point x="99" y="16" type="curve" smooth="yes"/>
      <point x="502" y="578" type="line" smooth="yes"/>
      <point x="519" y="602"/>
      <point x="515" y="623"/>
      <point x="497" y="639" type="curve" smooth="yes"/>
      <point x="479" y="655"/>
      <point x="443" y="656"/>
      <point x="425" y="631" type="curve" smooth="yes"/>
      <point x="20" y="69" type="line" smooth="yes"/>
      <point x="5" y="48"/>
      <point x="5" y="29"/>
    </contour>
    <contour>
      <point x="394" y="6" type="curve" smooth="yes"/>
      <point x="415" y="17"/>
      <point x="425" y="36"/>
      <point x="415" y="61" type="curve" smooth="yes"/>
      <point x="203" y="623" type="line" smooth="yes"/>
      <point x="192" y="651"/>
      <point x="160" y="655"/>
      <point x="137" y="647" type="curve" smooth="yes"/>
      <point x="111" y="638"/>
      <point x="102" y="617"/>
      <point x="114" y="586" type="curve" smooth="yes"/>
      <point x="322" y="28" type="line" smooth="yes"/>
      <point x="333" y="-1"/>
      <point x="371" y="-6"/>
    </contour>
  </outline>
</glyph>
<glyph name="backslash" format="2">
  <advance width="447"/>
  <unicode hex="005C"/>
  <outline>
    <contour>
      <point x="370" y="4" type="curve" smooth="yes"/>
      <point x="391" y="13"/>
      <point x="402" y="41"/>
      <point x="391" y="69" type="curve" smooth="yes"/>
      <point x="185" y="614" type="line" smooth="yes"/>
      <point x="172" y="648"/>
      <point x="139" y="655"/>
      <point x="114" y="646" type="curve" smooth="yes"/>
      <point x="92" y="638"/>
      <point x="80" y="608"/>
      <point x="93" y="574" type="curve" smooth="yes"/>
      <point x="298" y="32" type="line" smooth="yes"/>
      <point x="310" y="1"/>
      <point x="345" y="-6"/>
    </contour>
  </outline>
</glyph>
<glyph name="asciicircum" format="2">
  <advance width="451"/>
  <unicode hex="005E"/>
  <outline>
    <contour>
      <point x="153" y="284" type="curve" smooth="yes"/>
      <point x="275" y="388" type="line"/>
      <point x="245" y="390" type="line"/>
      <point x="335" y="284" type="line" smooth="yes"/>
      <point x="353" y="262"/>
      <point x="377" y="267"/>
      <point x="391" y="279" type="curve" smooth="yes"/>
      <point x="406" y="292"/>
      <point x="411" y="316"/>
      <point x="395" y="335" type="curve" smooth="yes"/>
      <point x="295" y="454" type="line" smooth="yes"/>
      <point x="282" y="469"/>
      <point x="259" y="475"/>
      <point x="236" y="456" type="curve" smooth="yes"/>
      <point x="100" y="342" type="line" smooth="yes"/>
      <point x="80" y="325"/>
      <point x="83" y="302"/>
      <point x="96" y="287" type="curve"/>
      <point x="110" y="273"/>
      <point x="129" y="264"/>
    </contour>
  </outline>
</glyph>
<glyph name="b" format="2">
  <advance width="457"/>
  <unicode hex="0062"/>
  <outline>
    <contour>
      <point x="174" y="-4" type="curve" smooth="yes"/>
      <point x="277" y="-4"/>
      <point x="353" y="81"/>
      <point x="353" y="196" type="curve" smooth="yes"/>
      <point x="353" y="215"/>
      <point x="343" y="249"/>
      <point x="326" y="286" type="curve"/>
      <point x="303" y="264" type="line"/>
      <point x="378" y="242" type="line" smooth="yes"/>
      <point x="418" y="230"/>
      <point x="448" y="255"/>
      <point x="448" y="296" type="curve" smooth="yes"/>
      <point x="448" y="319"/>
      <point x="430" y="334"/>
      <point x="406" y="338" type="curve" smooth="yes"/>
      <point x="299" y="356" type="line" smooth="yes"/>
      <point x="244" y="365"/>
      <point x="234" y="327"/>
      <point x="243" y="305" type="curve" smooth="yes"/>
      <point x="254" y="277"/>
      <point x="261" y="250"/>
      <point x="261" y="233" type="curve" smooth="yes"/>
      <point x="261" y="147"/>
      <point x="230" y="83"/>
      <point x="188" y="83" type="curve" smooth="yes"/>
      <point x="156" y="83"/>
      <point x="143" y="116"/>
      <point x="152" y="170" type="curve" smooth="yes"/>
      <point x="231" y="619" type="line" smooth="yes"/>
      <point x="237" y="654"/>
      <point x="216" y="675"/>
      <point x="187" y="675" type="curve" smooth="yes"/>
      <point x="162" y="675"/>
      <point x="136" y="656"/>
      <point x="131" y="627" type="curve" smooth="yes"/>
      <point x="52" y="178" type="line" smooth="yes"/>
      <point x="32" y="65"/>
      <point x="79" y="-4"/>
    </contour>
  </outline>
</glyph>
<glyph name="f" format="2">
  <advance width="297"/>
  <unicode hex="0066"/>
  <outline>
    <contour>
      <point x="56" y="-299" type="curve" smooth="yes"/>
      <point x="83" y="-299"/>
      <point x="105" y="-279"/>
      <point x="109" y="-255" type="curve" smooth="yes"/>
      <point x="234" y="504" type="line" smooth="yes"/>
      <point x="240" y="542"/>
      <point x="263" y="559"/>
      <point x="281" y="559" type="curve" smooth="yes"/>
      <point x="301" y="559"/>
      <point x="315" y="551"/>
      <point x="323" y="546" type="curve" smooth="yes"/>
      <point x="335" y="538"/>
      <point x="360" y="540"/>
      <point x="376" y="567" type="curve" smooth="yes"/>
      <point x="390" y="592"/>
      <point x="384" y="612"/>
      <point x="366" y="624" type="curve" smooth="yes"/>
      <point x="340" y="641"/>
      <point x="314" y="650"/>
      <point x="281" y="650" type="curve" smooth="yes"/>
      <point x="217" y="650"/>
      <point x="152" y="622"/>
      <point x="136" y="527" type="curve" smooth="yes"/>
      <point x="10" y="-241" type="line" smooth="yes"/>
      <point x="6" y="-264"/>
      <point x="18" y="-299"/>
    </contour>
    <contour>
      <point x="66" y="265" type="curve" smooth="yes"/>
      <point x="249" y="265" type="line" smooth="yes"/>
      <point x="279" y="265"/>
      <point x="296" y="281"/>
      <point x="296" y="307" type="curve" smooth="yes"/>
      <point x="296" y="331"/>
      <point x="276" y="350"/>
      <point x="244" y="350" type="curve" smooth="yes"/>
      <point x="61" y="350" type="line" smooth="yes"/>
      <point x="30" y="350"/>
      <point x="15" y="331"/>
      <point x="15" y="307" type="curve" smooth="yes"/>
      <point x="15" y="283"/>
      <point x="35" y="265"/>
    </contour>
  </outline>
</glyph>
<glyph name="h" format="2">
  <advance width="423"/>
  <unicode hex="0068"/>
  <outline>
    <contour>
      <point x="75" y="0" type="curve" smooth="yes"/>
      <point x="97" y="0"/>
      <point x="123" y="15"/>
      <point x="128" y="44" type="curve" smooth="yes"/>
      <point x="226" y="599" type="line" smooth="yes"/>
      <point x="232" y="631"/>
      <point x="205" y="650"/>
      <point x="177" y="650" type="curve" smooth="yes"/>
      <point x="155" y="650"/>
      <point x="133" y="640"/>
      <point x="128" y="612" type="curve" smooth="yes"/>
      <point x="29" y="50" type="line" smooth="yes"/>
      <point x="23" y="15"/>
      <point x="52" y="0"/>
    </contour>
    <contour>
      <point x="284" y="0" type="curve" smooth="yes"/>
      <point x="320" y="0"/>
      <point x="336" y="19"/>
      <point x="339" y="34" type="curve" smooth="yes"/>
      <point x="367" y="193" type="line" smooth="yes"/>
      <point x="386" y="302"/>
      <point x="357" y="358"/>
      <point x="281" y="358" type="curve" smooth="yes"/>
      <point x="235" y="358"/>
      <point x="197" y="321"/>
      <point x="159" y="268" type="curve"/>
      <point x="138" y="136" type="line"/>
      <point x="184" y="218"/>
      <point x="221" y="272"/>
      <point x="247" y="272" type="curve" smooth="yes"/>
      <point x="267" y="272"/>
      <point x="275" y="250"/>
      <point x="268" y="208" type="curve" smooth="yes"/>
      <point x="240" y="49" type="line" smooth="yes"/>
      <point x="236" y="25"/>
      <point x="252" y="0"/>
    </contour>
  </outline>
</glyph>
<glyph name="n" format="2">
  <advance width="403"/>
  <unicode hex="006E"/>
  <outline>
    <contour>
      <point x="59" y="0" type="curve" smooth="yes"/>
      <point x="96" y="0"/>
      <point x="115" y="22"/>
      <point x="118" y="37" type="curve" smooth="yes"/>
      <point x="165" y="302" type="line" smooth="yes"/>
      <point x="170" y="332"/>
      <point x="154" y="350"/>
      <point x="122" y="350" type="curve" smooth="yes"/>
      <point x="80" y="350"/>
      <point x="67" y="320"/>
      <point x="65" y="308" type="curve" smooth="yes"/>
      <point x="18" y="44" type="line" smooth="yes"/>
      <point x="14" y="20"/>
      <point x="25" y="0"/>
    </contour>
    <contour>
      <point x="274" y="0" type="curve" smooth="yes"/>
      <point x="310" y="0"/>
      <point x="326" y="19"/>
      <point x="329" y="34" type="curve" smooth="yes"/>
      <point x="357" y="193" type="line" smooth="yes"/>
      <point x="376" y="302"/>
      <point x="347" y="358"/>
      <point x="271" y="358" type="curve" smooth="yes"/>
      <point x="225" y="358"/>
      <point x="187" y="321"/>
      <point x="149" y="268" type="curve"/>
      <point x="128" y="136" type="line"/>
      <point x="174" y="218"/>
      <point x="211" y="272"/>
      <point x="237" y="272" type="curve" smooth="yes"/>
      <point x="257" y="272"/>
      <point x="265" y="250"/>
      <point x="258" y="208" type="curve" smooth="yes"/>
      <point x="230" y="49" type="line" smooth="yes"/>
      <point x="226" y="25"/>
      <point x="242" y="0"/>
    </contour>
  </outline>
</glyph>
<glyph name="w" format="2">
  <advance width="715"/>
  <unicode hex="0077"/>
  <outline>
    <contour>
      <point x="111" y="-4" type="curve" smooth="yes"/>
      <point x="167" y="-4"/>
      <point x="221" y="49"/>
      <point x="289" y="154" type="curve"/>
      <point x="277" y="159" type="line"/>
      <point x="271" y="115" type="line" smooth="yes"/>
      <point x="258" y="36"/>
      <point x="286" y="-4"/>
      <point x="352" y="-4" type="curve" smooth="yes"/>
      <point x="431" y="-4"/>
      <point x="540" y="101"/>
      <point x="611" y="241" type="curve" smooth="yes"/>
      <point x="614" y="247" type="line"/>
      <point x="652" y="239" type="line" smooth="yes"/>
      <point x="692" y="231"/>
      <point x="725" y="249"/>
      <point x="725" y="288" type="curve" smooth="yes"/>
      <point x="725" y="310"/>
      <point x="710" y="329"/>
      <point x="680" y="335" type="curve" smooth="yes"/>
      <point x="609" y="349"/>
      <point x="603" y="350"/>
      <point x="599" y="350" type="curve" smooth="yes"/>
      <point x="572" y="350"/>
      <point x="558" y="337"/>
      <point x="543" y="307" type="curve" smooth="yes"/>
      <point x="479" y="177"/>
      <point x="409" y="83"/>
      <point x="378" y="83" type="curve" smooth="yes"/>
      <point x="370" y="83"/>
      <point x="368" y="92"/>
      <point x="372" y="115" type="curve" smooth="yes"/>
      <point x="405" y="297" type="line" smooth="yes"/>
      <point x="411" y="330"/>
      <point x="388" y="350"/>
      <point x="358" y="350" type="curve" smooth="yes"/>
      <point x="331" y="350"/>
      <point x="317" y="337"/>
      <point x="302" y="307" type="curve" smooth="yes"/>
      <point x="238" y="177"/>
      <point x="168" y="83"/>
      <point x="137" y="83" type="curve" smooth="yes"/>
      <point x="129" y="83"/>
      <point x="127" y="92"/>
      <point x="131" y="115" type="curve" smooth="yes"/>
      <point x="164" y="297" type="line" smooth="yes"/>
      <point x="170" y="330"/>
      <point x="147" y="350"/>
      <point x="120" y="350" type="curve" smooth="yes"/>
      <point x="98" y="350"/>
      <point x="69" y="334"/>
      <point x="64" y="307" type="curve" smooth="yes"/>
      <point x="30" y="115" type="line" smooth="yes"/>
      <point x="17" y="36"/>
      <point x="45" y="-4"/>
    </contour>
  </outline>
</glyph>
<glyph name="x" format="2">
  <advance width="519"/>
  <unicode hex="0078"/>
  <outline>
    <contour>
      <point x="120" y="-4" type="curve" smooth="yes"/>
      <point x="222" y="-4"/>
      <point x="265" y="87"/>
      <point x="281" y="234" type="curve" smooth="yes"/>
      <point x="290" y="311"/>
      <point x="282" y="358"/>
      <point x="211" y="358" type="curve" smooth="yes"/>
      <point x="145" y="358"/>
      <point x="96" y="329"/>
      <point x="65" y="272" type="curve" smooth="yes"/>
      <point x="59" y="261"/>
      <point x="60" y="234"/>
      <point x="86" y="221" type="curve" smooth="yes"/>
      <point x="112" y="208"/>
      <point x="138" y="214"/>
      <point x="146" y="229" type="curve" smooth="yes"/>
      <point x="161" y="257"/>
      <point x="180" y="271"/>
      <point x="201" y="271" type="curve" smooth="yes"/>
      <point x="214" y="271"/>
      <point x="221" y="258"/>
      <point x="219" y="236" type="curve" smooth="yes"/>
      <point x="208" y="138"/>
      <point x="171" y="78"/>
      <point x="120" y="78" type="curve" smooth="yes"/>
      <point x="105" y="78"/>
      <point x="89" y="81"/>
      <point x="70" y="89" type="curve" smooth="yes"/>
      <point x="47" y="98"/>
      <point x="25" y="89"/>
      <point x="14" y="66" type="curve" smooth="yes"/>
      <point x="-2" y="32"/>
      <point x="24" y="14"/>
      <point x="37" y="9" type="curve" smooth="yes"/>
      <point x="59" y="0"/>
      <point x="85" y="-4"/>
    </contour>
    <contour>
      <point x="299" y="-4" type="curve" smooth="yes"/>
      <point x="362" y="-4"/>
      <point x="427" y="44"/>
      <point x="469" y="121" type="curve" smooth="yes"/>
      <point x="475" y="132"/>
      <point x="474" y="159"/>
      <point x="448" y="172" type="curve" smooth="yes"/>
      <point x="422" y="185"/>
      <point x="396" y="179"/>
      <point x="388" y="164" type="curve" smooth="yes"/>
      <point x="362" y="114"/>
      <point x="332" y="83"/>
      <point x="309" y="83" type="curve" smooth="yes"/>
      <point x="296" y="83"/>
      <point x="289" y="96"/>
      <point x="291" y="118" type="curve" smooth="yes"/>
      <point x="302" y="216"/>
      <point x="339" y="276"/>
      <point x="390" y="276" type="curve" smooth="yes"/>
      <point x="405" y="276"/>
      <point x="421" y="273"/>
      <point x="440" y="265" type="curve" smooth="yes"/>
      <point x="463" y="256"/>
      <point x="485" y="265"/>
      <point x="496" y="288" type="curve" smooth="yes"/>
      <point x="512" y="322"/>
      <point x="486" y="340"/>
      <point x="473" y="345" type="curve" smooth="yes"/>
      <point x="451" y="354"/>
      <point x="425" y="358"/>
      <point x="390" y="358" type="curve" smooth="yes"/>
      <point x="288" y="358"/>
      <point x="245" y="267"/>
      <point x="229" y="120" type="curve" smooth="yes"/>
      <point x="220" y="43"/>
      <point x="228" y="-4"/>
    </contour>
  </outline>
</glyph>
<glyph name="z" format="2">
  <advance width="383"/>
  <unicode hex="007A"/>
  <outline>
    <contour>
      <point x="54" y="0" type="curve" smooth="yes"/>
      <point x="272" y="0" type="line" smooth="yes"/>
      <point x="302.0" y="0.0"/>
      <point x="320" y="19"/>
      <point x="320" y="43" type="curve" smooth="yes"/>
      <point x="320" y="67"/>
      <point x="302" y="87"/>
      <point x="272" y="87" type="curve" smooth="yes"/>
      <point x="134" y="87" type="line"/>
      <point x="137" y="64" type="line"/>
      <point x="334" y="268" type="line" smooth="yes"/>
      <point x="372" y="308"/>
      <point x="354.0" y="350.0"/>
      <point x="308" y="350" type="curve" smooth="yes"/>
      <point x="103" y="350" type="line" smooth="yes"/>
      <point x="73" y="350"/>
      <point x="55" y="329"/>
      <point x="55" y="305" type="curve" smooth="yes"/>
      <point x="55" y="281"/>
      <point x="73" y="263"/>
      <point x="103" y="263" type="curve" smooth="yes"/>
      <point x="225" y="263" type="line"/>
      <point x="222" y="281" type="line"/>
      <point x="23" y="75" type="line" smooth="yes"/>
      <point x="-4" y="48"/>
      <point x="8" y="0"/>
    </contour>
  </outline>
</glyph>
<glyph name="braceright" format="2">
  <advance width="422"/>
  <unicode hex="007D"/>
  <outline>
    <contour>
      <point x="70" y="-296" type="curve" smooth="yes"/>
      <point x="99" y="-283"/>
      <point x="178" y="-253"/>
      <point x="199" y="-194" type="curve" smooth="yes"/>
      <point x="221" y="-129"/>
      <point x="210" y="-22"/>
      <point x="219" y="30" type="curve" smooth="yes"/>
      <point x="223" y="55"/>
      <point x="235" y="73"/>
      <point x="254" y="92" type="curve" smooth="yes"/>
      <point x="270" y="107"/>
      <point x="279" y="116"/>
      <point x="282" y="137" type="curve" smooth="yes"/>
      <point x="286" y="167"/>
      <point x="277" y="176"/>
      <point x="268" y="193" type="curve" smooth="yes"/>
      <point x="255" y="220"/>
      <point x="251" y="243"/>
      <point x="254" y="267" type="curve" smooth="yes"/>
      <point x="261" y="320"/>
      <point x="306" y="421"/>
      <point x="303" y="489" type="curve" smooth="yes"/>
      <point x="300" y="549"/>
      <point x="250" y="602"/>
      <point x="223" y="631" type="curve" smooth="yes"/>
      <point x="200" y="657"/>
      <point x="169" y="654"/>
      <point x="155" y="635" type="curve" smooth="yes"/>
      <point x="138" y="614"/>
      <point x="150" y="597"/>
      <point x="165" y="581" type="curve" smooth="yes"/>
      <point x="188" y="556"/>
      <point x="204" y="533"/>
      <point x="206" y="485" type="curve" smooth="yes"/>
      <point x="207" y="429"/>
      <point x="161" y="334"/>
      <point x="156" y="280" type="curve" smooth="yes"/>
      <point x="151" y="238"/>
      <point x="155" y="202"/>
      <point x="176" y="153" type="curve"/>
      <point x="141" y="116"/>
      <point x="129" y="84"/>
      <point x="121" y="44" type="curve" smooth="yes"/>
      <point x="112" y="-11"/>
      <point x="126" y="-113"/>
      <point x="108" y="-165" type="curve" smooth="yes"/>
      <point x="92" y="-206"/>
      <point x="58" y="-220"/>
      <point x="29" y="-230" type="curve" smooth="yes"/>
      <point x="6" y="-238"/>
      <point x="-5" y="-259"/>
      <point x="4" y="-282" type="curve" smooth="yes"/>
      <point x="15" y="-310"/>
      <point x="47" y="-306"/>
    </contour>
  </outline>
</glyph>
<glyph name="brokenbar" format="2">
  <advance width="251"/>
  <unicode hex="00A6"/>
  <outline>
    <contour>
      <point x="160" y="111" type="line" smooth="yes"/>
      <point x="165" y="141"/>
      <point x="143" y="163"/>
      <point x="116" y="163" type="curve" smooth="yes"/>
      <point x="93" y="163"/>
      <point x="66" y="146"/>
      <point x="61" y="119" type="curve" smooth="yes"/>
      <point x="-4" y="-248" type="line" smooth="yes"/>
      <point x="-9" y="-276"/>
      <point x="12" y="-300"/>
      <point x="44" y="-300" type="curve" smooth="yes"/>
      <point x="78" y="-300"/>
      <point x="91" y="-279"/>
      <point x="95" y="-258" type="curve" smooth="yes"/>
    </contour>
    <contour>
      <point x="254" y="643" type="line" smooth="yes"/>
      <point x="260" y="679"/>
      <point x="237" y="700"/>
      <point x="209" y="700" type="curve" smooth="yes"/>
      <point x="187" y="700"/>
      <point x="161" y="683"/>
      <point x="156" y="655" type="curve" smooth="yes"/>
      <point x="91" y="290" type="line" smooth="yes"/>
      <point x="85" y="259"/>
      <point x="109" y="236"/>
      <point x="137" y="238" type="curve" smooth="yes"/>
      <point x="160" y="239"/>
      <point x="185" y="256"/>
      <point x="190" y="282" type="curve" smooth="yes"/>
    </contour>
  </outline>
</glyph>
<glyph name="multiply" format="2">
  <advance width="426"/>
  <unicode hex="00D7"/>
  <outline>
    <contour>
      <point x="133" y="88" type="curve" smooth="yes"/>
      <point x="371" y="300" type="line" smooth="yes"/>
      <point x="401.0" y="327.0"/>
      <point x="392.0" y="348.0"/>
      <point x="376" y="364" type="curve" smooth="yes"/>
      <point x="362.0" y="378.0"/>
      <point x="338.0" y="385.0"/>
      <point x="313" y="363" type="curve" smooth="yes"/>
      <point x="73" y="150" type="line" smooth="yes"/>
      <point x="50.0" y="130.0"/>
      <point x="53.0" y="105.0"/>
      <point x="68" y="89" type="curve" smooth="yes"/>
      <point x="83" y="73.0"/>
      <point x="104.0" y="63.0"/>
    </contour>
    <contour>
      <point x="270" y="92" type="line" smooth="yes"/>
      <point x="291" y="65.0"/>
      <point x="316.0" y="70.0"/>
      <point x="332" y="82" type="curve" smooth="yes"/>
      <point x="351.0" y="96.0"/>
      <point x="359.0" y="118"/>
      <point x="340" y="144" type="curve"/>
      <point x="179" y="354" type="line" smooth="yes"/>
      <point x="156" y="385.0"/>
      <point x="131" y="379.0"/>
      <point x="116" y="368" type="curve" smooth="yes"/>
      <point x="98.0" y="354.0"/>
      <point x="91.0" y="327.0"/>
      <point x="108" y="305" type="curve" smooth="yes"/>
    </contour>
  </outline>
</glyph>
<glyph name="infinity" format="2">
  <advance width="709"/>
  <unicode hex="221E"/>
  <outline>
    <contour>
      <point x="187" y="70" type="curve" smooth="yes"/>
      <point x="250" y="70"/>
      <point x="322" y="121"/>
      <point x="379" y="181" type="curve"/>
      <point x="321" y="246" type="line"/>
      <point x="281" y="206"/>
      <point x="229" y="157"/>
      <point x="193" y="157" type="curve" smooth="yes"/>
      <point x="163" y="157"/>
      <point x="151" y="181"/>
      <point x="161" y="220" type="curve" smooth="yes"/>
      <point x="171" y="260"/>
      <point x="197" y="284"/>
      <point x="229" y="284" type="curve" smooth="yes"/>
      <point x="249" y="284"/>
      <point x="279" y="258"/>
      <point x="306" y="217" type="curve" smooth="yes"/>
      <point x="336" y="173" type="line" smooth="yes"/>
      <point x="380" y="109"/>
      <point x="436" y="70"/>
      <point x="480" y="70" type="curve" smooth="yes"/>
      <point x="566" y="70"/>
      <point x="628" y="124"/>
      <point x="646" y="211" type="curve" smooth="yes"/>
      <point x="671" y="310"/>
      <point x="627" y="371"/>
      <point x="530" y="371" type="curve" smooth="yes"/>
      <point x="467" y="371"/>
      <point x="395" y="320"/>
      <point x="338" y="260" type="curve"/>
      <point x="396" y="195" type="line"/>
      <point x="436" y="235"/>
      <point x="488" y="284"/>
      <point x="524" y="284" type="curve" smooth="yes"/>
      <point x="556" y="284"/>
      <point x="566" y="261"/>
      <point x="556" y="221" type="curve" smooth="yes"/>
      <point x="546" y="181"/>
      <point x="522" y="157"/>
      <point x="488" y="157" type="curve" smooth="yes"/>
      <point x="463" y="157"/>
      <point x="433" y="183"/>
      <point x="411" y="224" type="curve" smooth="yes"/>
      <point x="381" y="278" type="line" smooth="yes"/>
      <point x="349" y="335"/>
      <point x="293" y="371"/>
      <point x="235" y="371" type="curve" smooth="yes"/>
      <point x="153" y="371"/>
      <point x="91" y="317"/>
      <point x="71" y="230" type="curve" smooth="yes"/>
      <point x="48" y="131"/>
      <point x="92" y="70"/>
    </contour>
  </outline>
</glyph>
<glyph name="approxequal" format="2">
  <advance width="426"/>
  <unicode hex="2248"/>
  <outline>
    <contour>
      <point x="113" y="119.0" type="curve" smooth="yes"/>
      <point x="124.0" y="124.0"/>
      <point x="136.0" y="131.0"/>
      <point x="146" y="131.0" type="curve" smooth="yes"/>
      <point x="179.0" y="131.0"/>
      <point x="214.0" y="109.0"/>
      <point x="249" y="109.0" type="curve" smooth="yes"/>
      <point x="276.0" y="109.0"/>
      <point x="303.0" y="116"/>
      <point x="323" y="124.0" type="curve" smooth="yes"/>
      <point x="354.0" y="137.0"/>
      <point x="362.0" y="162.0"/>
      <point x="353" y="183.0" type="curve" smooth="yes"/>
      <point x="343" y="205.0"/>
      <point x="322.0" y="215.0"/>
      <point x="288" y="201.0" type="curve" smooth="yes"/>
      <point x="278" y="197.0"/>
      <point x="265.0" y="192.0"/>
      <point x="256" y="192.0" type="curve" smooth="yes"/>
      <point x="221.0" y="192.0"/>
      <point x="190.0" y="214.0"/>
      <point x="153" y="214.0" type="curve" smooth="yes"/>
      <point x="125.0" y="214.0"/>
      <point x="98.0" y="205"/>
      <point x="79" y="196.0" type="curve" smooth="yes"/>
      <point x="47.0" y="181.0"/>
      <point x="38.0" y="157.0"/>
      <point x="48" y="136.0" type="curve" smooth="yes"/>
      <point x="58.0" y="114.0"/>
      <point x="80" y="104"/>
    </contour>
    <contour>
      <point x="148" y="259.0" type="curve" smooth="yes"/>
      <point x="159.0" y="264.0"/>
      <point x="171.0" y="271.0"/>
      <point x="181" y="271.0" type="curve" smooth="yes"/>
      <point x="214.0" y="271.0"/>
      <point x="249.0" y="249.0"/>
      <point x="284" y="249.0" type="curve" smooth="yes"/>
      <point x="311.0" y="249.0"/>
      <point x="338.0" y="256.0"/>
      <point x="358" y="264.0" type="curve" smooth="yes"/>
      <point x="389.0" y="277.0"/>
      <point x="397.0" y="302"/>
      <point x="388" y="323.0" type="curve" smooth="yes"/>
      <point x="378" y="345.0"/>
      <point x="357.0" y="355.0"/>
      <point x="323" y="341.0" type="curve" smooth="yes"/>
      <point x="313" y="337"/>
      <point x="300.0" y="332.0"/>
      <point x="291" y="332.0" type="curve" smooth="yes"/>
      <point x="256" y="332.0"/>
      <point x="225.0" y="354.0"/>
      <point x="188" y="354.0" type="curve" smooth="yes"/>
      <point x="160.0" y="354.0"/>
      <point x="133.0" y="345.0"/>
      <point x="114" y="336.0" type="curve" smooth="yes"/>
      <point x="82.0" y="321"/>
      <point x="73.0" y="297"/>
      <point x="83" y="276.0" type="curve" smooth="yes"/>
      <point x="93.0" y="254.0"/>
      <point x="115" y="244.0"/>
    </contour>
  </outline>
</glyph>
